<svg width="188" height="32" viewBox="0 0 188 32" fill="none" xmlns="http://www.w3.org/2000/svg">
<path d="M11.328 16.456C11.328 18.888 11.6 20.664 12.144 21.784C12.688 22.872 13.6 23.416 14.88 23.416C16.16 23.416 18.288 23.064 21.264 22.36L22.8 29.992C19.664 30.984 16.64 31.48 13.728 31.48C9.28 31.48 6.032 30.216 3.984 27.688C1.968 25.128 0.96 21.336 0.96 16.312C0.96 11.256 2.016 7.4 4.128 4.744C6.24 2.056 9.68 0.711998 14.448 0.711998C17.232 0.711998 20.016 1.256 22.8 2.344L21.216 10.888C18.048 9.96 15.872 9.496 14.688 9.496C13.536 9.496 12.688 10.056 12.144 11.176C11.6 12.264 11.328 14.024 11.328 16.456ZM43.2405 31H24.2325V1.192H43.9125L43.2405 9.112H34.5045V12.712H42.1365V19.624H34.5045V23.704H43.9125L43.2405 31ZM78.8055 31H69.7335V16.792H69.4935L66.6615 31H58.2615L55.4775 16.792H55.2375V31H46.2615L47.4135 1.192H60.1815L62.4375 14.68H62.8695L65.0775 1.192H77.7015L78.8055 31ZM93.105 20.44C93.105 22.168 93.873 23.032 95.409 23.032C96.977 23.032 97.761 22.152 97.761 20.392V1.192H108.033V21.016C108.033 24.536 106.929 27.16 104.721 28.888C102.513 30.616 99.345 31.48 95.217 31.48C86.833 31.48 82.641 28.024 82.641 21.112V1.192H93.105V20.44ZM121.391 16.456C121.391 18.888 121.663 20.664 122.207 21.784C122.751 22.872 123.663 23.416 124.943 23.416C126.223 23.416 128.351 23.064 131.327 22.36L132.863 29.992C129.727 30.984 126.703 31.48 123.791 31.48C119.343 31.48 116.095 30.216 114.047 27.688C112.031 25.128 111.023 21.336 111.023 16.312C111.023 11.256 112.079 7.4 114.191 4.744C116.303 2.056 119.743 0.711998 124.511 0.711998C127.295 0.711998 130.079 1.256 132.863 2.344L131.279 10.888C128.111 9.96 125.935 9.496 124.751 9.496C123.599 9.496 122.751 10.056 122.207 11.176C121.663 12.264 121.391 14.024 121.391 16.456ZM159.399 31H149.319L148.359 26.392H143.031L142.023 31H132.375L138.567 1.192H153.207L159.399 31ZM147.639 20.2L145.815 10.216H145.623L143.751 20.2H147.639ZM187.118 15.448C187.118 25.816 182.382 31 172.91 31H161.342V1.192H173.15C178.238 1.192 181.838 2.424 183.95 4.888C186.062 7.32 187.118 10.84 187.118 15.448ZM172.766 23.512C174.398 23.512 175.454 22.952 175.934 21.832C176.414 20.712 176.654 18.856 176.654 16.264C176.654 13.64 176.382 11.784 175.838 10.696C175.326 9.576 174.238 9.016 172.574 9.016H171.566V23.512H172.766Z" fill="black"/>
</svg>
